<?xml version="1.0" encoding="UTF-8"?>
<svg width="60px" height="24px" viewBox="0 0 60 24" version="1.1" xmlns="http://www.w3.org/2000/svg" xmlns:xlink="http://www.w3.org/1999/xlink">
    <!-- Generator: Sketch 50.2 (55047) - http://www.bohemiancoding.com/sketch -->
    <title>Shape</title>
    <desc>Created with Sketch.</desc>
    <defs></defs>
    <g id="Page-1" stroke="none" stroke-width="1" fill="none" fill-rule="evenodd">
        <g id="Goal-Card" transform="translate(-684.000000, -476.000000)" fill="#CCCCCC" fill-rule="nonzero">
            <g id="Goal---No-Date" transform="translate(537.000000, 74.000000)">
                <g id="if_infinity_375743" transform="translate(147.000000, 402.000000)">
                    <path d="M45.7365,0.936111111 C39.1065,0.936111111 34.812,5.25 30.2625,9.81944444 C30.1155,9.96666667 29.9625,10.1194444 29.814,10.2680556 C29.664,10.1194444 29.511,9.96527778 29.3625,9.81805556 C24.8145,5.25 20.5185,0.936111111 13.89,0.936111111 C6.4275,0.936111111 0.357,6.03888889 0.357,12.3097222 C0.357,18.5805556 6.429,23.6833333 13.89,23.6833333 C20.6775,23.6833333 25.0725,19.2041667 29.724,14.4625 L29.8155,14.3708333 L29.904,14.4597222 C34.557,19.2027778 38.949,23.6833333 45.7395,23.6833333 C53.202,23.6833333 59.2725,18.5805556 59.2725,12.3097222 C59.2725,6.03888889 53.199,0.936111111 45.7365,0.936111111 Z M27.5025,12.5958333 C22.9485,17.2388889 19.35,20.9055556 13.89,20.9055556 C8.082,20.9055556 3.357,17.05 3.357,12.3097222 C3.357,7.56944444 8.082,3.71388889 13.89,3.71388889 C19.2045,3.71388889 22.7145,7.2375 27.1575,11.7 C27.363,11.9055556 27.5685,12.1125 27.7755,12.3194444 L27.5025,12.5958333 Z M45.7365,20.9069444 C40.275,20.9069444 36.678,17.2388889 32.1225,12.5958333 L31.8525,12.3208333 C32.0595,12.1138889 32.2635,11.9083333 32.4675,11.7027778 C36.912,7.24027778 40.422,3.71527778 45.7365,3.71527778 C51.5445,3.71527778 56.2695,7.57083333 56.2695,12.3111111 C56.2695,17.0513889 51.5445,20.9069444 45.7365,20.9069444 Z" id="Shape"></path>
                </g>
            </g>
        </g>
    </g>
</svg>